<svg display="none" xmlns="http://www.w3.org/2000/svg">
  <symbol id="car" viewBox="0, 0, 400, 198.4">
    <g>
      <path d="M231.000 2.997 C 230.780 3.070,230.105 3.239,229.500 3.373 C 228.078 3.686,228.083 3.772,230.000 11.551 C 230.880 15.121,231.600 18.227,231.600 18.453 C 231.600 19.169,157.783 18.649,146.400 17.853 C 91.352 14.001,80.338 13.997,57.555 17.817 C 40.879 20.613,14.050 27.467,11.937 29.471 C -0.117 40.903,-0.117 157.497,11.937 168.929 C 14.081 170.962,41.452 177.905,58.600 180.764 C 80.266 184.378,91.805 184.349,146.400 180.545 C 157.794 179.751,231.600 179.233,231.600 179.947 C 231.600 180.173,230.880 183.279,230.000 186.849 C 228.184 194.216,228.134 194.671,229.100 194.943 C 234.979 196.598,236.515 195.415,239.980 186.563 L 242.627 179.800 265.456 179.697 L 288.286 179.593 290.445 180.548 C 296.650 183.293,301.833 184.000,315.731 184.000 C 338.753 184.000,352.697 180.542,366.364 171.444 L 370.277 168.838 370.540 165.140 C 371.454 152.267,378.560 142.391,387.649 141.363 C 390.467 141.044,390.501 140.997,392.346 135.000 C 398.990 113.398,398.752 82.636,391.779 61.645 L 390.339 57.308 387.869 57.054 C 378.662 56.108,371.460 46.220,370.540 33.260 L 370.277 29.562 366.364 26.956 C 352.052 17.428,338.068 14.141,313.423 14.512 C 299.663 14.719,297.716 14.978,291.542 17.432 L 288.084 18.807 265.356 18.703 L 242.627 18.600 240.013 11.991 C 238.576 8.356,237.243 5.142,237.051 4.849 C 236.257 3.639,232.512 2.492,231.000 2.997 M178.608 28.252 C 189.415 28.402,206.155 28.307,219.144 28.023 C 231.315 27.757,241.323 27.597,241.386 27.669 C 242.541 28.990,241.998 29.526,237.646 31.363 C 209.157 43.388,156.991 48.638,110.402 44.169 C 106.772 43.821,103.751 43.485,103.688 43.422 C 103.625 43.358,104.488 41.939,105.606 40.267 C 109.727 34.106,115.089 30.817,123.966 29.007 C 131.109 27.550,129.572 27.571,178.608 28.252 M272.000 35.794 C 290.102 40.605,301.341 64.893,301.341 99.200 C 301.341 133.602,290.105 157.784,271.865 162.641 C 267.992 163.672,264.583 163.351,250.000 160.583 C 230.836 156.946,225.515 154.576,222.638 148.400 C 221.311 145.550,221.316 52.831,222.644 50.000 C 225.531 43.847,230.376 41.653,249.200 37.973 C 264.048 35.071,267.895 34.703,272.000 35.794 M88.929 37.432 C 90.809 37.881,92.081 44.699,90.538 46.056 C 89.665 46.824,88.001 47.394,87.997 46.927 C 87.996 46.747,87.637 44.530,87.200 42.000 C 86.237 36.426,86.242 36.699,87.100 36.954 C 87.485 37.068,88.308 37.283,88.929 37.432 M80.564 37.759 C 82.304 38.486,82.284 38.442,82.843 42.801 L 83.322 46.536 82.208 47.495 C 80.788 48.716,80.798 48.728,78.622 42.869 C 76.416 36.928,76.712 36.150,80.564 37.759 M337.697 45.227 C 349.485 48.572,355.641 53.877,355.113 60.238 C 354.716 65.029,352.010 65.550,351.991 60.838 C 351.979 57.832,350.924 55.660,348.109 52.845 C 345.412 50.148,342.900 48.517,345.037 50.850 C 348.307 54.420,349.309 57.351,348.229 60.179 C 346.945 63.541,344.623 63.498,345.793 60.134 C 346.503 58.093,345.926 55.336,344.262 52.822 C 343.678 51.939,343.197 50.898,343.194 50.509 C 343.180 48.928,340.743 47.539,334.528 45.571 C 332.368 44.886,330.250 43.988,329.822 43.574 C 328.915 42.697,328.402 42.589,337.697 45.227 M329.305 47.912 C 331.402 50.626,331.703 53.996,330.033 56.058 C 328.818 57.559,327.919 56.505,328.637 54.423 C 329.226 52.712,328.667 49.836,327.425 48.193 C 327.095 47.757,326.820 46.993,326.813 46.497 C 326.796 45.332,327.716 45.854,329.305 47.912 M335.996 50.993 C 337.030 53.127,337.020 55.435,335.970 57.157 C 334.762 59.137,333.833 58.194,334.512 55.677 C 334.908 54.214,334.868 53.672,334.247 52.077 C 333.845 51.045,333.423 49.570,333.310 48.800 L 333.104 47.400 334.149 48.366 C 334.723 48.898,335.555 50.080,335.996 50.993 M340.173 49.800 C 341.675 51.769,342.401 53.694,342.394 55.687 C 342.382 59.023,341.787 58.420,340.120 53.385 C 338.392 48.165,338.402 47.479,340.173 49.800 M91.482 50.625 C 93.831 51.772,95.339 53.367,96.563 56.000 C 97.395 57.790,97.400 58.034,97.400 99.228 L 97.400 140.657 96.196 143.011 C 92.781 149.688,91.266 149.883,69.763 146.417 C 49.292 143.117,49.396 143.150,44.831 138.481 C 28.128 121.394,28.044 77.609,44.681 59.973 C 49.002 55.393,49.407 55.260,69.000 52.027 C 87.083 49.042,88.109 48.978,91.482 50.625 M28.400 92.200 L 28.400 97.200 18.800 97.200 L 9.200 97.200 9.200 92.200 L 9.200 87.200 18.800 87.200 L 28.400 87.200 28.400 92.200 M217.200 92.200 L 217.200 97.200 158.400 97.200 L 99.600 97.200 99.600 92.200 L 99.600 87.200 158.400 87.200 L 217.200 87.200 217.200 92.200 M394.400 92.200 L 394.400 97.200 350.400 97.200 L 306.400 97.200 306.400 92.200 L 306.400 87.200 350.400 87.200 L 394.400 87.200 394.400 92.200 M28.400 106.200 L 28.400 111.200 18.800 111.200 L 9.200 111.200 9.200 106.200 L 9.200 101.200 18.800 101.200 L 28.400 101.200 28.400 106.200 M217.200 106.200 L 217.200 111.200 158.400 111.200 L 99.600 111.200 99.600 106.200 L 99.600 101.200 158.400 101.200 L 217.200 101.200 217.200 106.200 M394.400 106.200 L 394.400 111.200 350.400 111.200 L 306.400 111.200 306.400 106.200 L 306.400 101.200 350.400 101.200 L 394.400 101.200 394.400 106.200 M354.641 135.836 C 356.076 139.272,354.721 143.329,351.005 146.726 C 347.237 150.170,343.566 151.688,330.622 155.156 C 327.207 156.071,330.515 154.100,334.528 152.829 C 340.743 150.861,343.180 149.472,343.194 147.891 C 343.197 147.502,343.678 146.461,344.262 145.578 C 345.926 143.064,346.503 140.307,345.793 138.266 C 344.623 134.902,346.945 134.859,348.229 138.221 C 349.309 141.049,348.307 143.980,345.037 147.550 C 342.900 149.883,345.412 148.252,348.109 145.555 C 350.900 142.764,351.979 140.562,351.991 137.631 C 352.006 134.100,353.494 133.091,354.641 135.836 M336.004 141.300 C 337.487 143.732,336.637 147.731,334.149 150.034 L 333.104 151.000 333.310 149.600 C 333.423 148.830,333.845 147.355,334.247 146.323 C 334.865 144.734,334.907 144.181,334.519 142.727 C 334.198 141.527,334.186 140.857,334.479 140.505 C 335.059 139.806,335.110 139.833,336.004 141.300 M342.394 142.713 C 342.401 144.706,341.675 146.631,340.173 148.600 C 338.402 150.921,338.392 150.235,340.120 145.015 C 341.787 139.980,342.382 139.377,342.394 142.713 M330.209 142.558 C 331.862 145.080,331.179 148.607,328.501 151.371 C 326.820 153.106,326.052 152.314,327.409 150.243 C 328.734 148.220,329.232 145.704,328.644 143.998 C 327.864 141.733,328.990 140.697,330.209 142.558 M82.785 151.382 C 83.293 151.994,82.770 158.678,82.133 159.708 C 81.481 160.763,77.515 161.634,77.019 160.831 C 76.830 160.525,79.975 151.412,80.642 150.331 C 80.888 149.933,82.059 150.507,82.785 151.382 M90.538 152.344 C 91.305 153.018,91.213 157.662,90.389 159.828 C 90.104 160.578,86.944 161.877,86.495 161.428 C 86.423 161.357,86.732 159.141,87.182 156.504 C 87.632 153.868,88.000 151.584,88.000 151.429 C 88.000 150.997,89.706 151.612,90.538 152.344 M165.800 153.203 C 195.078 154.903,220.465 159.785,237.563 167.002 C 242.004 168.877,242.548 169.408,241.382 170.735 C 241.317 170.809,231.304 170.648,219.132 170.376 C 203.616 170.030,190.782 169.989,176.200 170.240 C 124.146 171.133,118.296 170.494,109.711 162.985 C 107.945 161.440,103.344 155.323,103.688 154.978 C 103.894 154.772,116.860 153.585,122.600 153.247 C 130.706 152.769,157.855 152.741,165.800 153.203 " fill-rule="evenodd"></path>
    </g>
  </symbol>
</svg>