<?xml version="1.0" standalone="no"?>
<!DOCTYPE svg PUBLIC "-//W3C//DTD SVG 20010904//EN"
 "http://www.w3.org/TR/2001/REC-SVG-20010904/DTD/svg10.dtd">
<svg version="1.0" xmlns="http://www.w3.org/2000/svg"
 width="421.000000pt" height="67.000000pt" viewBox="0 0 421.000000 67.000000"
 preserveAspectRatio="xMidYMid meet">
<metadata>
Created by potrace 1.16, written by Peter Selinger 2001-2019
</metadata>
<g transform="translate(0.000000,67.000000) scale(0.100000,-0.100000)"
fill="#fff" stroke="none">
<path d="M405 628 c-3 -13 -4 -84 -3 -158 l3 -135 185 0 185 0 3 158 3 157
-186 0 c-183 0 -185 0 -190 -22z"/>
<path d="M1170 490 l0 -160 185 0 185 0 0 160 0 160 -185 0 -185 0 0 -160z"/>
<path d="M1924 637 c-2 -7 -3 -78 -2 -157 l3 -145 185 0 185 0 3 125 c2 69 0
140 -3 158 l-6 32 -180 0 c-138 0 -181 -3 -185 -13z"/>
<path d="M2684 637 c-2 -7 -3 -78 -2 -157 l3 -145 185 0 185 0 0 155 0 155
-183 3 c-144 2 -184 0 -188 -11z"/>
<path d="M3444 637 c-2 -7 -3 -78 -2 -157 l3 -145 185 0 185 0 0 155 0 155
-183 3 c-144 2 -184 0 -188 -11z"/>
<path d="M200 320 l-175 -5 -3 -135 c-4 -200 -25 -180 193 -180 l185 0 0 159
c0 119 -3 160 -12 162 -7 2 -92 2 -188 -1z"/>
<path d="M800 322 c-6 -2 -10 -66 -10 -163 l0 -159 185 0 185 0 0 160 c0 88
-3 160 -7 160 -84 3 -346 4 -353 2z"/>
<path d="M1549 319 c-6 -3 -8 -72 -7 -160 l3 -154 183 -3 182 -2 -2 160 -3
161 -173 2 c-96 1 -178 -1 -183 -4z"/>
<path d="M2309 319 c-6 -3 -8 -72 -7 -160 l3 -154 179 -3 c137 -2 181 1 188
10 4 7 8 79 8 160 l0 147 -181 3 c-100 2 -185 0 -190 -3z"/>
<path d="M3238 322 l-178 -2 0 -144 c0 -80 3 -151 6 -160 5 -14 31 -16 184
-16 153 0 179 2 184 16 3 9 6 80 6 159 0 106 -3 144 -12 146 -7 2 -93 3 -190
1z"/>
<path d="M3834 321 c-2 -2 -4 -76 -4 -163 l0 -158 179 0 c154 0 180 2 185 16
10 26 7 292 -4 299 -11 7 -349 12 -356 6z"/>
</g>
</svg>
